<?xml version="1.0" encoding="UTF-8"?>
<svg id="Calque_1" data-name="Calque 1" xmlns="http://www.w3.org/2000/svg" viewBox="0 0 40 40">
  <path d="m20,2.5C10.34,2.5,2.5,10.34,2.5,20c0,7.73,5.01,14.29,11.97,16.61.87.16,1.16-.38,1.16-.84v-3.26c-4.87,1.06-5.88-2.07-5.88-2.07-.8-2.02-1.94-2.56-1.94-2.56-1.59-1.09.12-1.06.12-1.06,1.76.12,2.68,1.8,2.68,1.8,1.56,2.67,4.09,1.9,5.09,1.45.16-1.13.61-1.9,1.11-2.34-3.89-.44-7.97-1.95-7.97-8.65,0-1.91.68-3.47,1.8-4.7-.18-.44-.78-2.22.17-4.63,0,0,1.47-.47,4.81,1.79,1.4-.39,2.89-.58,4.38-.59,1.49,0,2.99.2,4.38.59,3.34-2.26,4.81-1.79,4.81-1.79.95,2.41.35,4.19.17,4.63,1.12,1.23,1.8,2.79,1.8,4.7,0,6.72-4.09,8.2-7.99,8.63.63.54,1.2,1.61,1.2,3.24v4.8c0,.47.28,1.01,1.17.84,6.95-2.32,11.96-8.88,11.96-16.6,0-9.66-7.84-17.5-17.5-17.5Z"/>
</svg>