<?xml version="1.0" encoding="UTF-8"?>
<svg id="Calque_1" data-name="Calque 1" xmlns="http://www.w3.org/2000/svg" viewBox="0 0 145.5 40">
  <g id="rectangle">
    <path d="m133.35,2c5.6,0,10.15,4.55,10.15,10.15v15.71c0,5.6-4.55,10.15-10.15,10.15H12.15c-5.6,0-10.15-4.55-10.15-10.15v-15.71C2,6.55,6.55,2,12.15,2h121.21m0-2H12.15C5.47,0,0,5.47,0,12.15v15.71c0,6.68,5.47,12.15,12.15,12.15h121.21c6.68,0,12.15-5.47,12.15-12.15v-15.71c0-6.68-5.47-12.15-12.15-12.15h0Z"/>
  </g>
  <g id="Typo">
    <path d="m26.24,12.31h-5.93c-.21,0-.38.17-.38.38v17.72c0,.21-.17.38-.38.38h-2.94c-.21,0-.38-.17-.38-.38V12.69c0-.21-.17-.38-.38-.38h-5.88c-.21,0-.38-.17-.38-.38v-2.24c0-.21.17-.38.38-.38h16.28c.21,0,.38.17.38.38v2.24c0,.21-.17.38-.38.38Z"/>
    <path d="m44.79,9.3c.21,0,.38.17.38.38v13.98c0,2.28-.73,4.09-2.19,5.43-1.46,1.33-3.41,2-5.84,2s-4.42-.66-5.86-1.97-2.17-3.14-2.17-5.47v-13.97c0-.21.17-.38.38-.38h2.95c.21,0,.38.17.38.38v14c0,1.44.36,2.53,1.09,3.29s1.8,1.14,3.22,1.14c2.87,0,4.31-1.52,4.31-4.55v-13.88c0-.21.17-.38.38-.38h2.95Z"/>
    <path d="m56.82,22.52h-3.55c-.21,0-.38.17-.38.38v7.5c0,.21-.17.38-.38.38h-2.97c-.21,0-.38-.17-.38-.38V9.68c0-.21.17-.38.38-.38h7.18c2.48,0,4.4.56,5.74,1.67,1.35,1.11,2.02,2.72,2.02,4.83,0,1.44-.35,2.64-1.04,3.61-.62.87-1.47,1.57-2.54,2.08-.2.09-.27.33-.17.53l4.63,8.59v.19h-3.77c-.14,0-.27-.08-.34-.21l-4.1-7.86c-.07-.13-.2-.21-.34-.21Zm-3.93-3.4c0,.21.17.38.38.38h3.45c1.26,0,2.24-.32,2.95-.95s1.06-1.5,1.06-2.61-.33-2.04-.98-2.67c-.65-.63-1.63-.95-2.93-.97h-3.56c-.21,0-.38.17-.38.38v6.44Z"/>
    <path d="m84.7,30.79h-3.14c-.13,0-.25-.07-.33-.18l-8.76-13.94c-.21-.33-.71-.18-.71.2v13.54c0,.21-.17.38-.38.38h-2.97c-.21,0-.38-.17-.38-.38V9.68c0-.21.17-.38.38-.38h3.14c.13,0,.26.07.33.18l8.79,14c.2.33.71.18.71-.2v-13.59c0-.21.17-.38.38-.38h2.94c.21,0,.38.17.38.38v20.73c0,.21-.17.38-.38.38Z"/>
    <path d="m114.18,20.61c0,2.11-.36,3.95-1.09,5.54s-1.77,2.81-3.12,3.66c-1.35.85-2.91,1.28-4.67,1.28s-3.3-.43-4.66-1.28c-1.36-.85-2.42-2.06-3.16-3.64-.74-1.57-1.12-3.39-1.13-5.45v-1.21c0-2.1.37-3.95,1.11-5.55.74-1.6,1.79-2.83,3.15-3.68,1.35-.85,2.91-1.28,4.66-1.28s3.3.42,4.66,1.26,2.4,2.05,3.14,3.63c.74,1.58,1.11,3.42,1.12,5.51v1.2Zm-3.74-1.12c0-2.38-.45-4.21-1.35-5.48-.9-1.27-2.18-1.9-3.83-1.9s-2.88.63-3.79,1.9c-.91,1.27-1.38,3.05-1.4,5.37v1.24c0,2.36.46,4.19,1.38,5.48.92,1.29,2.2,1.93,3.83,1.93s2.93-.63,3.82-1.89c.89-1.26,1.34-3.1,1.34-5.52v-1.12Z"/>
    <path d="m134.58,30.79h-3.14c-.13,0-.25-.07-.33-.18l-8.76-13.94c-.21-.33-.71-.18-.71.2v13.54c0,.21-.17.38-.38.38h-2.97c-.21,0-.38-.17-.38-.38V9.68c0-.21.17-.38.38-.38h3.14c.13,0,.26.07.33.18l8.79,14c.2.33.71.18.71-.2v-13.59c0-.21.17-.38.38-.38h2.94c.21,0,.38.17.38.38v20.73c0,.21-.17.38-.38.38Z"/>
  </g>
  <g id="Underline">
    <polyline points="25.27 11.01 18.17 11.01 11.05 11.01 18.17 11.01 18.17 29.78" style="fill: none; stroke: #f2f2f2; stroke-linecap: round; stroke-miterlimit: 10; stroke-width: .43px;"/>
    <path d="m30.87,11.01v14s.35,4.46,6.34,4.46,5.99-3.71,5.99-3.71v-14.75" style="fill: none; stroke: #f2f2f2; stroke-linecap: round; stroke-miterlimit: 10; stroke-width: .43px;"/>
    <path d="m62.71,29.47l-4.38-8.43h-8.17,8.17s4.16-.18,4.16-5.13c0-5.22-4.61-5.22-4.61-5.22h-7.19v18.79" style="fill: none; stroke: #f2f2f2; stroke-linecap: round; stroke-miterlimit: 10; stroke-width: .43px;"/>
    <path d="m69.61,29.47l.4-17.63c0-.4.52-.55.74-.22l11.93,17.17c.15.21.48.11.48-.15V10.69" style="fill: none; stroke: #f2f2f2; stroke-linecap: round; stroke-miterlimit: 10; stroke-width: .43px;"/>
    <path d="m119.66,29.43l.18-18.06c0-.4.52-.55.74-.22l12.14,17.6c.15.21.48.11.48-.15V10.64" style="fill: none; stroke: #f2f2f2; stroke-linecap: round; stroke-miterlimit: 10; stroke-width: .43px;"/>
    <path d="m105.34,10.64s-7.25-.26-7.25,9.6,6.73,9.23,6.73,9.23c0,0,7.85.59,7.85-9.28s-7.34-9.55-7.34-9.55Z" style="fill: none; stroke: #f2f2f2; stroke-linecap: round; stroke-miterlimit: 10; stroke-width: .43px;"/>
  </g>
</svg>