<?xml version="1.0" encoding="UTF-8"?>
<svg id="Calque_1" data-name="Calque 1" xmlns="http://www.w3.org/2000/svg" viewBox="0 0 159.5 54">
  <rect id="rectangle-underline" x="7" y="7" width="145.5" height="40" rx="12.15" ry="12.15" style="fill: none; stroke: #000; stroke-miterlimit: 10; stroke-width: .5px;"/>
  <g>
    <path d="m33.59,18.81h-6.99v18.48h-.71v-18.48h-6.99v-.71h14.69v.71Z"/>
    <path d="m49.87,18.1v13c0,2.03-.59,3.61-1.77,4.75-1.18,1.14-2.77,1.71-4.79,1.71s-3.61-.57-4.79-1.71c-1.18-1.14-1.77-2.71-1.78-4.7v-13.05h.71v12.97c0,1.78.53,3.18,1.6,4.22,1.07,1.04,2.49,1.56,4.25,1.56s3.18-.52,4.25-1.56c1.06-1.04,1.59-2.45,1.59-4.23v-12.96h.71Z"/>
    <path d="m62.25,29.08h-6.66v8.21h-.71v-19.2h6.12c1.93,0,3.46.5,4.59,1.49,1.14.99,1.71,2.34,1.71,4.05,0,1.31-.41,2.45-1.22,3.43-.81.98-1.85,1.59-3.1,1.83l5.13,8.21v.18h-.75l-5.1-8.21Zm-6.66-.71h6.05c1.48,0,2.67-.45,3.58-1.34.91-.9,1.36-2.03,1.36-3.39,0-1.49-.5-2.67-1.51-3.53-1.01-.86-2.38-1.29-4.13-1.29h-5.35v9.56Z"/>
    <path d="m86.44,37.29h-.71l-12.39-17.98v17.98h-.72v-19.2h.72l12.39,17.94v-17.94h.71v19.2Z"/>
    <path d="m111.76,29.13c0,1.66-.3,3.13-.89,4.41-.59,1.28-1.44,2.27-2.54,2.97-1.1.7-2.36,1.05-3.8,1.05-2.16,0-3.91-.77-5.25-2.31-1.34-1.54-2-3.61-2-6.22v-2.77c0-1.65.3-3.12.89-4.4.59-1.28,1.44-2.27,2.54-2.97,1.1-.7,2.37-1.05,3.79-1.05s2.7.35,3.8,1.05c1.1.7,1.95,1.69,2.55,2.98.6,1.29.9,2.75.9,4.4v2.87Zm-.71-2.9c0-2.32-.59-4.18-1.77-5.58-1.18-1.4-2.77-2.1-4.77-2.1s-3.56.7-4.73,2.09-1.77,3.29-1.77,5.69v2.81c0,1.53.27,2.88.8,4.05.53,1.17,1.29,2.08,2.27,2.71.98.63,2.13.95,3.45.95,2,0,3.59-.7,4.76-2.1,1.17-1.4,1.75-3.3,1.75-5.72v-2.8Z"/>
    <path d="m126.7,27.85h-9.83v9.44h-.71v-19.2h11.89v.71h-11.18v8.31h9.83v.74Z"/>
    <path d="m142.15,27.85h-9.83v9.44h-.71v-19.2h11.89v.71h-11.18v8.31h9.83v.74Z"/>
  </g>
</svg>