<?xml version="1.0" encoding="UTF-8"?>
<svg id="Calque_1" data-name="Calque 1" xmlns="http://www.w3.org/2000/svg" viewBox="0 0 30 17">
  <path d="m7.93,13.01c.67,0,1.19-.18,1.55-.54s.55-.87.54-1.52h4.46c0,1.67-.6,3.05-1.8,4.12s-2.75,1.61-4.64,1.61c-2.22,0-3.97-.7-5.25-2.09s-1.92-3.32-1.92-5.79v-.2c0-1.54.28-2.9.85-4.09s1.39-2.09,2.46-2.72,2.34-.95,3.81-.95c1.99,0,3.56.55,4.73,1.65s1.75,2.59,1.75,4.47h-4.46c0-.79-.19-1.4-.58-1.82s-.9-.64-1.55-.64c-1.23,0-1.95.79-2.16,2.36-.07.5-.1,1.19-.1,2.06,0,1.53.18,2.6.55,3.19s.95.89,1.75.89Z"/>
  <path d="m22.58,10.74l2.41-9.61h5.01l-4.98,15.27h-4.85L15.18,1.13h5.02l2.37,9.61Z"/>
</svg>